# xmcd
#
# Track frame offsets:
#	150
#	28693
#	52529
#	73149
#	88998
#	110844
#	126690
#	144126
#	160215
#	179765
#	203762
#	218880
#	237357
#	270135
#	290810
#	310621
#
# Disc length: 4352 seconds
#
# Revision: 1
# Processed by: cddbd v1.5.1PL0 Copyright (c) Steve Scherf et al.
# Submitted via: audiograbber 1.83.01
#
DISCID=f210fe10
DTITLE=Various Artist - Good Whiskey Blues Vol. 3
DYEAR=2001
DGENRE=Blues
TTITLE0=Metropolitan Blues All - Stars - Devil Gets His Due
TTITLE1=Tim Wagoner And Wild Blue Younder - Make It Rain
TTITLE2=Hypnotics - Blues Patrol
TTITLE3=Dean Hall - I Know Something 'Bout The Blues
TTITLE4=Metropolitan Blues All - Stars - Storm Comin' Thru'
TTITLE5=Planet Rockets - Tennessee Woman
TTITLE6=Dean Hall - My Milkman Was Freddie King
TTITLE7=Buddy Flett And The Bluebirds - Blues In A Honky Tonk Key
TTITLE8=Johnny Neal - White She's In Love
TTITLE9=Metropolitan Blues All - Stars - Bad Situation
TTITLE10=Buddy Flett And The Bluebirds - Third House On The Left
TTITLE11=Tim Wagoner And Wild Blue Younder - My Old Friend The Blues
TTITLE12=Lost In Detroit - I Want To Make Love To You
TTITLE13=Steve Gannon - Too Through With You
TTITLE14=Jeff Jolly - Long Distance Love
TTITLE15=Vipers - Mailbox Blues
EXTD=
EXTT0=
EXTT1=
EXTT2=
EXTT3=
EXTT4=
EXTT5=
EXTT6=
EXTT7=
EXTT8=
EXTT9=
EXTT10=
EXTT11=
EXTT12=
EXTT13=
EXTT14=
EXTT15=
PLAYORDER=
